<?xml version="1.0" encoding="UTF-8" standalone="no"?>
<!-- Created with Inkscape (http://www.inkscape.org/) -->

<svg
   version="1.1"
   id="svg1"
   width="121.19708"
   height="92.632645"
   viewBox="0 0 121.19708 92.632647"
   xmlns="http://www.w3.org/2000/svg"
   xmlns:svg="http://www.w3.org/2000/svg">
  <defs
     id="defs1" />
  <g
     id="layer-MC0"
     transform="translate(-70.34737,3.6386571)">
    <path
       id="path1"
       d="m 101.51021,38.729776 c 0,0 -1.870671,0.849333 -5.253337,2.08 -1.697333,0.598666 -3.770667,1.297333 -6.202667,1.949333 -1.217333,0.324 -2.525333,0.637333 -3.930666,0.882667 -1.406667,0.230666 -2.909334,0.449333 -4.553334,0.310666 -0.817333,-0.07733 -1.694666,-0.221333 -2.557333,-0.726666 -0.425333,-0.252 -0.838666,-0.624 -1.118666,-1.104 -0.288,-0.478667 -0.410667,-1.028 -0.432,-1.537334 -0.04267,-1.036 0.249333,-1.946666 0.581333,-2.806666 0.352,-0.861334 0.768,-1.650667 1.264,-2.454667 0.966667,-1.6 2.353333,-3.073333 4.057333,-4.168 1.714667,-1.085333 3.764,-1.738666 5.862667,-1.857333 4.234666,-0.230667 8.393333,1.438667 11.82,3.870666 1.72667,1.224 3.31867,2.630667 4.788,4.149334 0.376,0.372 0.71733,0.774666 1.07867,1.161333 l 1.02,1.110667 c 0.676,0.708 1.35466,1.332 2.108,1.968 2.98133,2.464 6.65466,3.977333 10.424,4.175999 3.768,0.241334 7.54533,-0.794666 10.72666,-2.563999 1.59467,-0.88 3.06134,-1.952 4.25734,-3.196 l 0.22266,-0.233334 0.056,-0.05867 c -0.009,0.012 0.0587,-0.068 -0.012,0.02 l 0.0267,-0.03467 0.10667,-0.136 0.21333,-0.270667 0.11467,-0.2 c 0.16267,-0.249333 0.276,-0.6 0.33067,-0.904 0.0827,-0.630666 -0.0707,-1.294666 -0.476,-1.885333 -0.796,-1.209333 -2.26,-2.025333 -3.70534,-2.561333 -1.476,-0.524 -3.012,-0.8 -4.49866,-0.94 -2.984,-0.282667 -5.788,-0.064 -8.23734,0.266666 -2.45466,0.344 -4.57466,0.833334 -6.304,1.284 -1.73333,0.442667 -3.09066,0.832 -4.00533,1.126667 -0.91733,0.288 -1.40667,0.441333 -1.40667,0.441333 0,0 0.47467,-0.194666 1.36534,-0.558666 0.89066,-0.365334 2.204,-0.890667 3.916,-1.453334 1.71066,-0.562666 3.81333,-1.192 6.28666,-1.698666 2.47067,-0.485333 5.31867,-0.924 8.48134,-0.788 1.57733,0.07733 3.23466,0.290667 4.91333,0.801333 1.64667,0.549333 3.432,1.332 4.70267,3.038667 0.624,0.838666 1.00133,2.004 0.87333,3.172 -0.0853,0.585333 -0.236,1.121333 -0.54533,1.66 l -0.23067,0.393333 -0.204,0.277333 -0.10267,0.138667 -0.0947,0.118667 -0.0613,0.07067 -0.244,0.277334 c -1.31733,1.478666 -2.89333,2.721333 -4.62266,3.766666 -3.468,2.050667 -7.64,3.309333 -11.96267,3.144 -4.32667,-0.137333 -8.60667,-1.910667 -11.96533,-4.644 -0.824,-0.678666 -1.66,-1.44 -2.40134,-2.210666 l -2.05733,-2.246664 c -1.356,-1.429333 -2.816,-2.741333 -4.373337,-3.869333 -3.112,-2.216 -6.692,-3.766667 -10.214667,-3.661333 -1.742666,0.064 -3.422666,0.514666 -4.885333,1.335999 -1.450667,0.842667 -2.68,2.005334 -3.601333,3.38 -0.913333,1.354667 -1.753333,2.905334 -1.78,4.201334 -0.0093,0.64 0.230667,1.088 0.74,1.426666 0.506667,0.34 1.212,0.522667 1.913333,0.614667 2.881333,0.317333 5.72,-0.213333 8.133333,-0.666667 2.436,-0.490666 4.538667,-1.053333 6.261334,-1.54 3.451999,-0.966666 5.39467,-1.638666 5.39467,-1.638666"
       style="fill:#231f20;fill-opacity:1;fill-rule:nonzero;stroke:none;stroke-width:1.33333" />
    <path
       id="path2"
       d="M 78.258206,45.222316 C 85.927539,98.388983 208.92754,78.222315 179.76087,4.8889833"
       style="fill:none;stroke:#231f20;stroke-width:1.33333;stroke-linecap:butt;stroke-linejoin:miter;stroke-miterlimit:10;stroke-dasharray:none;stroke-opacity:1" />
    <path
       id="path3"
       d="m 82.260206,29.055646 c 0,0 13,-21.3333331 34.666664,-20.3333331 21.66667,1 38.43467,16.6053331 47,16.3333331 10.5,-0.333334 17.00534,-5.168 18.66934,-10.833333"
       style="fill:none;stroke:#231f20;stroke-width:1.33333;stroke-linecap:butt;stroke-linejoin:miter;stroke-miterlimit:10;stroke-dasharray:none;stroke-opacity:1" />
  </g>
</svg>
