<svg xmlns="http://www.w3.org/2000/svg" viewbox="0 0 103 25">
      <path
        d="M26.5844 16.1444C26.5976 16.1376 26.6111 16.1311 26.6248 16.1249C29.6008 14.7899 31.6673 11.8536 31.6673 8.44595C31.6673 3.78138 27.7951 0 23.0185 0H5.42437L26.5844 16.1444Z"
        fill="current-color"
      ></path>
      <path
        d="M9.51381 8.9736L30.5192 25H13.332C8.55539 25 4.68322 21.2186 4.68322 16.5541C4.68322 13.2279 6.65209 10.3508 9.51381 8.9736Z"
        fill="current-color"
      ></path>
      <path d="M0 0H3.17671L35.9436 25H32.7668L0 0Z" fill="currentColor"></path>
      <path
        d="M42.0329 17.3353H46.2059H54.1411V20.2703H42.0329V17.3353ZM49.7086 7.91807L49.6329 8.17145V7.79138L53.9681 7.83361L46.2059 17.3353L46.2708 16.9975V17.3775L42.0329 17.3353L49.7086 7.91807ZM42.1194 4.98311H53.9681V7.83361L49.7086 7.91807H42.1194V4.98311Z"
        fill="current-color"
      ></path>
      <path
        d="M54.4071 9.375H57.6503L61.8774 20.2703H59.0125L54.4071 9.375ZM59.0125 20.2703L60.472 16.8813H60.8179L60.645 16.9764L63.4882 9.375H66.7099L60.3963 24.8311H57.153L59.0125 20.2703Z"
        fill="current-color"
      ></path>
      <path
        d="M67.2894 9.375H70.3597V11.9299L69.8732 14.8226L70.3597 18.0743V24.8311H67.2894V9.375ZM70.7056 18.7817H69.3434V10.8636H70.7056L69.6029 14.8226C69.6029 13.5417 69.7651 12.4754 70.0894 11.6237C70.4137 10.7651 70.8858 10.1281 71.5056 9.71284C72.1254 9.29054 72.875 9.07939 73.7543 9.07939C74.7633 9.07939 75.6606 9.32925 76.4462 9.82897C77.239 10.3287 77.8552 11.0149 78.2949 11.8877C78.7417 12.7604 78.9652 13.7387 78.9652 14.8226C78.9652 15.8995 78.7417 16.8778 78.2949 17.7576C77.8552 18.6303 77.239 19.3166 76.4462 19.8163C75.6606 20.316 74.7633 20.5659 73.7543 20.5659C72.875 20.5659 72.1254 20.3547 71.5056 19.9324C70.8858 19.5101 70.4137 18.8732 70.0894 18.0215C69.7651 17.1699 69.6029 16.1036 69.6029 14.8226L70.7056 18.7817ZM73.0732 17.8209C73.6137 17.8209 74.0966 17.6943 74.5219 17.4409C74.9543 17.1805 75.2858 16.8215 75.5165 16.364C75.7543 15.9065 75.8732 15.3927 75.8732 14.8226C75.8732 14.2385 75.7543 13.7211 75.5165 13.2707C75.2858 12.8132 74.9543 12.4578 74.5219 12.2044C74.0966 11.951 73.6137 11.8243 73.0732 11.8243C72.5399 11.8243 72.0606 11.951 71.6353 12.2044C71.2101 12.4578 70.875 12.8132 70.6299 13.2707C70.3921 13.7211 70.2732 14.2385 70.2732 14.8226C70.2732 15.3998 70.3921 15.9171 70.6299 16.3746C70.875 16.825 71.2101 17.1805 71.6353 17.4409C72.0606 17.6943 72.5399 17.8209 73.0732 17.8209Z"
        fill="current-color"
      ></path>
      <path
        d="M79.9122 4.98311H82.9825V20.2703H79.9122V4.98311ZM87.4366 14.3159C87.4366 13.5206 87.2528 12.9082 86.8852 12.4789C86.5249 12.0425 86.0168 11.8243 85.3609 11.8243C84.914 11.8243 84.5104 11.9334 84.1501 12.1516C83.7897 12.3628 83.505 12.6936 83.296 13.144C83.087 13.5874 82.9825 14.147 82.9825 14.8226L82.6365 12.7956V10.9903H83.3284L82.6365 12.7956C82.6365 12.0636 82.7987 11.4196 83.123 10.8636C83.4546 10.3005 83.9122 9.86416 84.496 9.55448C85.0798 9.23775 85.7465 9.07939 86.496 9.07939C87.3321 9.07939 88.0492 9.26943 88.6474 9.64949C89.2528 10.0296 89.7141 10.575 90.0312 11.2859C90.3483 11.9897 90.5069 12.8308 90.5069 13.8091V20.2703H87.4366V14.3159Z"
        fill="current-color"
      ></path>
      <path
        d="M97.508 20.5659C96.3261 20.5659 95.2774 20.3195 94.3621 19.8269C93.4467 19.3342 92.7332 18.6515 92.2215 17.7787C91.7098 16.8989 91.4539 15.9136 91.4539 14.8226C91.4539 13.7176 91.7062 12.7287 92.2107 11.856C92.7224 10.9832 93.4215 10.3041 94.308 9.81841C95.1945 9.32573 96.1963 9.07939 97.3135 9.07939C98.4234 9.07939 99.4072 9.32573 100.265 9.81841C101.13 10.3041 101.8 10.9832 102.276 11.856C102.759 12.7287 103 13.7176 103 14.8226C103 15.1182 102.975 15.442 102.924 15.7939H96.0378V13.503H100.038L99.8756 13.8302C99.8756 13.3939 99.7675 13.0032 99.5513 12.6584C99.3423 12.3064 99.0432 12.032 98.654 11.8349C98.2648 11.6308 97.818 11.5287 97.3135 11.5287C96.7657 11.5287 96.2756 11.6554 95.8432 11.9088C95.4179 12.1551 95.0864 12.5246 94.8486 13.0173C94.6179 13.503 94.5026 14.0942 94.5026 14.791C94.5026 15.4807 94.6323 16.079 94.8918 16.5857C95.1513 17.0854 95.508 17.4655 95.9621 17.7259C96.4161 17.9863 96.9351 18.1166 97.5189 18.1166C98.0954 18.1166 98.5855 17.9969 98.9892 17.7576C99.3928 17.5183 99.7027 17.1875 99.9189 16.7652L102.589 17.7259C102.135 18.6128 101.472 19.3095 100.6 19.8163C99.7279 20.316 98.6973 20.5659 97.508 20.5659Z"
        fill="current-color"
      ></path>
    </svg>